# xmcd
#
# Track frame offsets:
#	150
#	20815
#	33757
#	53967
#	72172
#	84165
#	102532
#	121967
#	140402
#	155675
#	170715
#	182117
#	196932
#	219102
#
# Disc length: 3068 seconds
#
# Revision: 1
# Processed by: cddbd v1.5.2PL0 Copyright (c) Steve Scherf et al.
# Submitted via: EZCDAudioConverter 2.1.7.1
#
DISCID=c10bfa0e
DTITLE=The Cramps - Look Mom! No Head!
DYEAR=1900
DGENRE=
TTITLE0=Dames, Booze, Chains And Boots
TTITLE1=Two Headed Sex Change
TTITLE2=Blow Up Your Mind
TTITLE3=Hardworkin' Man
TTITLE4=Miniskirt Blues
TTITLE5=Alligator Stomp
TTITLE6=I Wanna Get In Your Pants
TTITLE7=Bend Over, I'll Drive
TTITLE8=Don't Get Funny With Me
TTITLE9=Eyeball In My Martini
TTITLE10=Hipsville, 29 B.C.
TTITLE11=The Strangeness In Me
TTITLE12=Wilder Wilder Faster Faster
TTITLE13=Jelly Roll Rock
EXTD=
EXTT0=
EXTT1=
EXTT2=
EXTT3=
EXTT4=
EXTT5=
EXTT6=
EXTT7=
EXTT8=
EXTT9=
EXTT10=
EXTT11=
EXTT12=
EXTT13=
PLAYORDER=
